# xmcd
#
# Track frame offsets: 
#        150
#        15792
#        35358
#        53730
#        58791
#        89113
#        102362
#        123850
#        127769
#        143535
#        162677
#        184168
#        200049
#        212844
#
# Disc length: 3018 seconds
#
# Revision: 3
# Processed by: cddbd v1.5.2PL0 Copyright (c) Steve Scherf et al.
# Submitted via: ExactAudioCopy v1.3
#
DISCID=c20bc80e
DTITLE=Ina Müller - Live - CD1
DYEAR=2012
DGENRE=Pop
TTITLE0=Paparazzia
TTITLE1=Über Scheidung
TTITLE2=Ja ich will
TTITLE3=Über Heirat
TTITLE4=Mit Mitte 20
TTITLE5=Über Werbung
TTITLE6=Fast darüber weg
TTITLE7=Über Musikgeräte
TTITLE8=Die Nummer
TTITLE9=Neues in Wind
TTITLE10=Über die Kindheit
TTITLE11=Mama
TTITLE12=Über Thorsten ohne Haar
TTITLE13=Podkasten
EXTD=
EXTT0=
EXTT1=
EXTT2=
EXTT3=
EXTT4=
EXTT5=
EXTT6=
EXTT7=
EXTT8=
EXTT9=
EXTT10=
EXTT11=
EXTT12=
EXTT13=
PLAYORDER=
